<?xml version="1.0" encoding="UTF-8"?>
<svg enable-background="new 0 0 400 400" viewBox="0 0 400 400" xmlns="http://www.w3.org/2000/svg">
 <path d="m202.598,148.225c.279.429-2.733-.157-2.733-.245 .011-.33 2.659.085.657-.119 .513.051 1.541.19 2.076.364z" fill="#fff" fill-rule="evenodd"/>
 <path d="m187.619,148.347c-.133.174-.375.231-.657.242 .089-.259.452-.473.657-.242z" fill="#fff" fill-rule="evenodd"/>
 <path d="m177.342,148.711c-.102.214-.34.269-.656.245 .176-.163.408-.52.656-.245z" fill="#fff" fill-rule="evenodd"/>
 <path d="m174.281,150.781c-.574.497-1.463.646-2.297.854 .524-.554 1.382-.735 2.297-.854z" fill="#fff" fill-rule="evenodd"/>
 <path d="m191.119,152.974c.258-.279.979-.041 1.422-.119-.401.483-1.068.091-1.422.119z" fill="#fff" fill-rule="evenodd"/>
 <path d="m166.848,154.679c-1.355.606-2.765.64-4.375,1.096 1.369-.834 2.679-1.031 4.375-1.096z" fill="#fff" fill-rule="evenodd"/>
 <path d="m173.734,155.652c-.035.531-.6.47-1.094.49 .106-.64.542-.595 1.094-.49z" fill="#fff" fill-rule="evenodd"/>
 <path d="m158.646,157.238c.385.606-1.439.708-2.08.974 .184-.242-.006-.157 0-.487 .317-.398 1.638.075 2.08-.487z" fill="#fff" fill-rule="evenodd"/>
 <path d="m166.956,158.94c-.657.599-1.716.763-2.843.977 .467-.861 1.791-.766 2.843-.977z" fill="#fff" fill-rule="evenodd"/>
 <path d="m167.939,160.523c-.34.109-.51.408-.875.49-.656-.742.743-1.426.875-.49z" fill="#fff" fill-rule="evenodd"/>
 <path d="m192.541,160.159c-.848.187-2.028.531-3.281.364 .694-.565 2.144-.29 3.281-.364z" fill="#fff" fill-rule="evenodd"/>
 <path d="m143.777,165.884c-.313.872-1.634,1.671-2.737,2.07 .542-1.103 1.863-1.338 2.737-2.07z" fill="#fff" fill-rule="evenodd"/>
 <path d="m235.398,169.66c.964-.058.439,1.542 1.42,1.46-.521.354.191.851.222,1.341-.98-.453-1.273-1.668-1.642-2.801z" fill="#fff" fill-rule="evenodd"/>
 <path d="m237.584,174.044h.33c.238.705.344,1.563.875,1.948-.064.075-.258.579 0,.609-.193.283-.452-.381-.766-.364 .232-.507-.486-1.294-.439-2.193z" fill="#fff" fill-rule="evenodd"/>
 <path d="m231.793,175.259c.526.27.996.597 1.313,1.097-.538.388-.954-.582-1.313-1.097z" fill="#fff" fill-rule="evenodd"/>
 <path d="m269.949,179.645h.33c.02.211-.188.316 0,.368-.099.326-.445-.058-.33-.368z" fill="#fff" fill-rule="evenodd"/>
 <path d="m231.9,180.741c.259.041.412.194.766.123-.02.422-.092.793-.548.732 .126-.508-.227-.477-.218-.855z" fill="#fff" fill-rule="evenodd"/>
 <path d="m124.204,184.029c-.562.105-1.069.269-1.423.609-.133-.316 1.154-1.48 1.423-.609z" fill="#fff" fill-rule="evenodd"/>
 <path d="m235.947,183.665c.779.371.313,1.467.218,2.192-.722-.439-.089-1.722-.218-2.192z" fill="#fff" fill-rule="evenodd"/>
 <path d="m231.574,184.883c.507-.119.66.157.983.242 .081.375-.3.235-.218.609-.333-.197-.765-.282-.765-.851z" fill="#fff" fill-rule="evenodd"/>
 <path d="m239.225,185.857c.664.405.658,1.614.984,2.07-.564.027-1.342-1.021-.984-2.07z" fill="#fff" fill-rule="evenodd"/>
 <path d="m118.955,188.414c.037.449-.398.368-.654.487-.088-.505.419-.712.654-.487z" fill="#fff" fill-rule="evenodd"/>
 <path d="m239.553,190.119c.211.051.473.044.438.368-.286.03-.548.04-.438-.368z" fill="#fff" fill-rule="evenodd"/>
 <path d="m251.801,190.729c-.15.19-.383.551-.658.245 .099-.215.341-.269.658-.245z" fill="#fff" fill-rule="evenodd"/>
 <path d="m251.033,191.093c-.863-.167-1.125.487-1.748.245-.021-.62 1.514-.709 1.748-.245z" fill="#fff" fill-rule="evenodd"/>
 <path d="m241.633,192.188c-.188.317-.77.055-.875-.119 .101-.469.611.035.875.119z" fill="#fff" fill-rule="evenodd"/>
 <path d="m274.65,194.99c.408.343.48,1.627.33,2.191-.578-.452-.21-1.463-.33-2.191z" fill="#fff" fill-rule="evenodd"/>
 <path d="m276.621,199.133c.033-.168.271-.103.436-.123v.609c-.166-.137-.27-.35-.436-.486z" fill="#fff" fill-rule="evenodd"/>
 <path d="m274.324,206.438c-.014.314-.021.631-.328.61-.023-.349-.014-.665.328-.61z" fill="#fff" fill-rule="evenodd"/>
 <path d="m297.283,223.125c-1.197.715-3.75.364-5.027.609 1.412-.68 3.435-.783 5.027-.609z" fill="#fff" fill-rule="evenodd"/>
 <path d="m262.951,230.311c-.418.263-1.408.328-1.748-.121 .846.224 1.123-.297 1.748.121z" fill="#fff" fill-rule="evenodd"/>
 <path d="m256.502,231.771c-.154.279-.764.045-1.094.123 .035-.398.895-.279 1.094-.123z" fill="#fff" fill-rule="evenodd"/>
 <path d="m169.359,233.477c-.088-.306-.497-.255-.875-.244-.136-.385 3.418-.024 1.205,0-.187-.004-.285.091-.33.244z" fill="#fff" fill-rule="evenodd"/>
 <path d="m160.941,233.477c-.392.416-1.402.141-1.859.487 .035-.474 1.332-.425 1.859-.487z" fill="#fff" fill-rule="evenodd"/>
 <path d="m235.398,234.814c-.023.382-.544.208-.874.246 .024-.378.544-.207.874-.246z" fill="#fff" fill-rule="evenodd"/>
 <path d="m232.449,235.302c-.283.396-1.27.149-1.967.368 .395-.357 1.565-.412 1.967-.368z" fill="#fff" fill-rule="evenodd"/>
 <path d="m233.98,236.889c-1.246.555-4.541.755-6.232.363 1.61-.085 3.922-.49 6.232-.363z" fill="#fff" fill-rule="evenodd"/>
 <path d="m130.981,237.494c-1.321.541-2.461-.021-4.044,0 .889-.341 3.091-.058 4.044,0z" fill="#fff" fill-rule="evenodd"/>
 <path d="m151.321,237.252c.845.034 1.45.33 2.185.487-.418-.024-1.926.119-2.185-.487z" fill="#fff" fill-rule="evenodd"/>
 <path d="m249.285,238.713c-4.379.729-9.057-.105-13.777-.123 1.372-.905 5.279.579 6.998-.242 .066-.029.188-.159.219-.244 1.728.939 4.252.279 6.56.609z" fill="#fff" fill-rule="evenodd"/>
 <path d="m172.093,239.566c-4.466-.057-8.19-.514-12.354-1.096 3.269-.615 6.22.123 9.294.486 1.028.124 2.226-.169 3.06.61z" fill="#fff" fill-rule="evenodd"/>
 <path d="m143.665,238.59c.259-.279.984-.041 1.423-.119-.258.279-.98.041-1.423.119z" fill="#fff" fill-rule="evenodd"/>
 <path d="m148.696,238.835c.439-.282 1.349-.04 1.968-.122-.177.674-1.525.016-1.968.122z" fill="#fff" fill-rule="evenodd"/>
 <path d="m126.28,238.957c-.163.539-.643-.003-1.092.123 .068-.435.612.034 1.092-.123z" fill="#fff" fill-rule="evenodd"/>
 <path d="m264.482,239.08c.119-.279.688-.047.982-.123-.134.515-.587.041-.982.123z" fill="#fff" fill-rule="evenodd"/>
 <path d="m139.291,239.809c-.337.449-.882.123-1.419.123 .272-.392 1.003-.178 1.419-.123z" fill="#fff" fill-rule="evenodd"/>
 <path d="m132.187,246.021c2.512-.113 4.708.146 6.996.241-1.832.324-4.92.246-6.996-.241z" fill="#fff" fill-rule="evenodd"/>
 <path d="m131.421,246.021c-.068.371-.589.238-.657.609-.323-.086-.477-.365-.984-.246 .354-.564 1.201-.097 1.641-.363z" fill="#fff" fill-rule="evenodd"/>
 <path d="m127.594,246.385c-.082.276-.612.049-.875.123 .198-.477.535-.313.875-.123z" fill="#fff" fill-rule="evenodd"/>
 <path d="m139.291,246.263c.868.378 2.529-.136 3.063.609-.905-.33-2.433.03-3.063-.609z" fill="#fff" fill-rule="evenodd"/>
 <path d="m144.979,247.117c.725-.364 1.876.47 0,0z" fill="#fff" fill-rule="evenodd"/>
 <path d="m161.816,247.24c.187-.279.834-.048 1.201-.123-.187.279-.833.045-1.201.123z" fill="#fff" fill-rule="evenodd"/>
 <path d="m169.689,247.604c-1.324.238-3.836-.027-5.031-.122s.671-.136 1.093-.122c1.038.033 2.833-.192 3.938.244z" fill="#fff" fill-rule="evenodd"/>
 <path d="m206.428,247.359c-.082.275-.616.047-.875.122 .057-.428.633-.194.875-.122z" fill="#fff" fill-rule="evenodd"/>
 <path d="m149.571,247.846c-.017-.14.024-.215.108-.242 2.581.279 4.637.072 7.217.365 .194-.035.225.115.109.122-2.855.177-4.854.099-7.435,0 .001-.081.001-.163.001-.245z" fill="#fff" fill-rule="evenodd"/>
 <path d="m238.133,248.7c.477-.347 1.855-.357.983-.122-.3.081-.405.166-.983.122z" fill="#fff" fill-rule="evenodd"/>
 <path d="m237.693,248.7c-1.402.368-2.414.426-4.043.487 1.079-.462 2.553-.484 4.043-.487z" fill="#fff" fill-rule="evenodd"/>
 <path d="m193.961,248.822c-1.488.457-3.309.327-4.919.365 1.532-.402 2.944-.347 4.919-.365z" fill="#fff" fill-rule="evenodd"/>
 <path d="m232.993,248.941c.279.018.565.024.548.368-.289-.002-.684.113-.548-.368z" fill="#fff" fill-rule="evenodd"/>
 <path d="m140.932,250.038c-1.133.528-2.594.034-3.608-.487 .395-.493.582.113.984.246 .779-.182 1.732.176 2.624.241z" fill="#fff" fill-rule="evenodd"/>
 <path d="m269.074,250.038c-.752.531-2.035.688-2.951.368 .732-.565 2.025-.316 2.951-.368z" fill="#fff" fill-rule="evenodd"/>
 <path d="m141.149,250.283c.637-.218 1.91-.099 2.407.245-.663.249-1.593-.255-2.407-.245z" fill="#fff" fill-rule="evenodd"/>
 <path d="m152.195,251.379c.352-.027.463.215.875.123 .041.31-.857.231-.875-.123z" fill="#fff" fill-rule="evenodd"/>
 <path d="m218.891,252.354c.286.463-1.357.823-1.967,1.096 .514-.522 1.283-.763 1.967-1.096z" fill="#fff" fill-rule="evenodd"/>
 <path d="m167.283,253.207c.143.167-.797.16-1.093.242 .228-.457.603-.283 1.093-.242z" fill="#fff" fill-rule="evenodd"/>
 <path d="m239.991,254.912c1.212.035 2.265.164 3.06.365-.623-.078-2.641.347-3.06-.365z" fill="#fff" fill-rule="evenodd"/>
 <path d="m252.018,256.737c-.629.396-1.793.194-2.732.245 .632-.677 1.778-.013 2.732-.245z" fill="#fff" fill-rule="evenodd"/>
 <path d="m177.124,257.469c.388.422-1.153.726-1.423,1.219-.848-.055-1.252.389-1.967.487 .946-.773 2.426-.95 3.39-1.706z" fill="#fff" fill-rule="evenodd"/>
 <path d="m224.685,258.197c-.144.439-.357.041-.653.246-.106-.439.428-.171.653-.246z" fill="#fff" fill-rule="evenodd"/>
 <path d="m183.357,258.688c1,.184 1.627.075 2.402,0-.321.432-2.133.657-2.402,0z" fill="#fff" fill-rule="evenodd"/>
 <path d="m265.904,258.807c-.135.297-.221.646-.656.609 .184-.241-.01-.152 0-.486 .129-.14.389-.137.656-.123z" fill="#fff" fill-rule="evenodd"/>
 <path d="m246.334,260.025c-.342,0-.717.289-.984,0-.069-.656 1.05-.656.984,0z" fill="#fff" fill-rule="evenodd"/>
 <path d="m255.627,260.025c.541-.014.537.119.982,0-.037.239-.996.485-.982,0z" fill="#fff" fill-rule="evenodd"/>
 <path d="m201.069,260.758c.97-.354 3.003-.664 4.044-.367h-.656c-1.008.216-2.128.193-3.388.367z" fill="#fff" fill-rule="evenodd"/>
 <path d="m200.961,260.635c-.123.313-.59.238-.984.245 .187-.238.565-.265.984-.245z" fill="#fff" fill-rule="evenodd"/>
 <path d="m182.7,261.607c-.136.178-.378.232-.657.246 .089-.259.449-.476.657-.246z" fill="#fff" fill-rule="evenodd"/>
 <path d="m136.23,262.704c-.099.442-.323.075-.657.122-.255-.112.648-.271.657-.122z" fill="#fff" fill-rule="evenodd"/>
 <path d="m140.932,263.071c-.228.603-1.406.334-2.294.241-.769-.081-1.542-.391-2.188-.363 1.404-.367 2.984.006 4.482.122z" fill="#fff" fill-rule="evenodd"/>
 <path d="m160.284,263.313c.14.031.112.242 0,.246-1.784.688-4.249.074-6.229.363 .449-.568 1.382-.203 2.186-.244 1.419-.069 3.175-.184 4.043-.365z" fill="#fff" fill-rule="evenodd"/>
 <path d="m255.408,264.168c-1.059,1.137-2.969.908-4.592,1.582 1.168-.932 3.071-1.045 4.592-1.582z" fill="#fff" fill-rule="evenodd"/>
 <path d="m224.576,265.992c-.541.508-1.396.174-2.186.245-4.178.368-8.304,1.044-11.919.609 5.005-.847 9.084-.744 14.105-.854z" fill="#fff" fill-rule="evenodd"/>
 <path d="m250.377,266.725c-.221.279-.391.618-.656.85-.531.146-.365-.482-.764-.486 .273-.345.807-.396 1.42-.364z" fill="#fff" fill-rule="evenodd"/>
 <path d="m183.357,268.548c.404-.085.466.211.871.122-.05.171-.984.297-.871-.122z" fill="#fff" fill-rule="evenodd"/>
 <path d="m170.891,268.916c.742.067 1.733-.144 2.295.122-.817.147-1.723.452-2.295-.122z" fill="#fff" fill-rule="evenodd"/>
 <path d="m173.298,269.038c.504-.249.841-.007 1.528-.122 .014.633-1.127.152-1.528.122z" fill="#fff" fill-rule="evenodd"/>
 <path d="m196.477,270.135c.313-.024.597-.018.545.363-.287-.003-.685.113-.545-.363z" fill="#fff" fill-rule="evenodd"/>
 <path d="m186.418,270.498c1.037-.102 1.565.365 2.624.242-.555.429-2.329.399-2.624-.242z" fill="#fff" fill-rule="evenodd"/>
 <path d="m233.65,273.664c-.389.5-1.104.641-1.75.854 .45-.435.869-.901 1.75-.854z" fill="#fff" fill-rule="evenodd"/>
 <path d="m230.918,276.221c-.119.667-1.342.518-1.75.486 .589-.152 1.116-.381 1.75-.486z" fill="#fff" fill-rule="evenodd"/>
 <path d="m237.04,278.413c-.923.752-2.863.562-3.499,0 1.477-.071 1.937-.02 3.499,0z" fill="#fff" fill-rule="evenodd"/>
 <path d="m223.922,279.877c-.16.188-.429.255-.766.242 .14-.436.358-.32.766-.242z" fill="#fff" fill-rule="evenodd"/>
 <path d="m226.325,279.877c.487.068 1.284-.215 1.313.363-.513-.037-1.187.107-1.313-.363z" fill="#fff" fill-rule="evenodd"/>
 <path d="m224.249,281.215c-.228.619-2.046,1.008-1.968-.123 .545-.467 1.475-.174 1.968.123z" fill="#fff" fill-rule="evenodd"/>
 <path d="m233.432,283.652c-.929.011-1.643-.518-2.841-.609 .753-.514 2.139.26 2.841.609z" fill="#fff" fill-rule="evenodd"/>
 <path d="m227.857,284.018c.551-.249 1.344.285 1.858.486-.606.307-1.244-.395-1.858-.486z" fill="#fff" fill-rule="evenodd"/>
 <path d="m249.611,286.454c-.926.77-2.873.997-4.371.729 1.631-.317 2.727-.488 4.371-.729z" fill="#fff" fill-rule="evenodd"/>
 <path d="m237.148,287.183c1.154.218 2.016.759 3.279.854-.736.258-2.747-.082-3.279-.854z" fill="#fff" fill-rule="evenodd"/>
 <path d="m240.865,288.277c.49-.339 1.295.018 1.859,0-.523.453-1.411.041-1.859,0z" fill="#fff" fill-rule="evenodd"/>
 <path d="m186.854,148.47c-.641.174-1.814.49-2.513.487 .886-.422 1.909-.579 2.513-.487z" fill="#fff" fill-rule="evenodd"/>
 <path d="m210.799,154.924c.973.538 2.232.759 3.063,1.46-.923-.112-2.251-.82-3.063-1.46z" fill="#fff" fill-rule="evenodd"/>
 <path d="m49.856,88.914h314.56c.127-.021.193.027.219.123v235.17c-104.92-.082-210.154.163-314.887-.119v-234.81c-.01-.173-.018-.343.108-.364zm198.88,24.966c.234.18.402-.034.656.123 .211.129.566.603.875.851 .994.8 1.865,1.702 2.951,2.192 .27.8.975,1.109 1.641,1.463 .086.569.094.599.658.487 0,.324-.041.694.109.851 .703.129 1.338.916 1.967.732-.219.249-.027.323.109.487 .932.296 1.453,1.083 2.076,1.583 1.182.946 2.672,1.467 3.064,2.07 1.631.32 2.49,1.123 4.371,1.341 1.41,1.032 2.258,2.683 3.83,3.53 .018.378.174.208.219.732 1.072.021 1.316.967 2.186,1.219 .779,1.273 1.834,2.06 2.842,3.044 .66.644 1.266,1.406 2.08,1.828-.146.463.592.841 1.092,1.46 .59.731.896,1.688 1.75,1.096 .559-.517-.244-1.984.545-2.069 .797.412.385,2.172 1.424,2.314 .248-1.402-.191-2.373-.549-3.169-.17-.378-.201-.837-.326-1.096-.645-1.29-2.061-2.949-2.951-4.018-.383-.453-.549-.994-.875-1.464-.938-1.328-2.258-2.155-2.408-4.14 1.076-2.311 2.693-4.224 3.17-6.941 .486-2.761-.242-5.695-.762-7.795-.914-3.659-1.906-6.107-3.83-8.282-1.297-1.467-2.465-2.049-4.154-3.043-.291-.17-.455-.548-.766-.732-1.508-.889-3.373-1.025-5.027-1.338-1.365-.912-3.246-1.205-4.924-1.219-1.219-.01-2.016.446-2.842.609-1.049.208-2.125.079-3.17.245-1.053.167-1.91.742-2.842,1.096-2.506.943-4.848,2.025-6.672,3.408-2.166,2.686-4.861,4.898-6.451,8.037-.807,1.6-1.668,3.35-2.295,5.116-4.488,12.708.191,25.068 4.266,35.318 .5,1.263.775,2.601 1.311,3.775 .299.664.797,1.171 1.092,1.828 .434.957.658,2.035 1.094,2.923 .439.882 1.123,1.58 1.531,2.434 .924,1.937 1.943,4.003 2.951,6.09 1.008,2.083 2.264,4.017 3.174,5.967 .477,1.021 1.17,2.492 1.418,3.531 .242.997.293,2.212.549,3.411 .225,1.065.738,2.475.545,3.411-.074.371-.549.538-.875,1.096-.242.419-.348,1.089-.654,1.583-1.494,2.403-4.02,4.967-7.543,4.385-1.42-.854-2.547-2.039-3.391-3.534-1.3-2.666-.047-6.478-.656-9.011-1.41-5.853-4.307-10.748-8.2-13.764-1.452-2.924-4.138-4.479-5.793-7.186-1.665-.417-2.71-2.14-4.262-3.042-.409-.235-.978-.242-1.423-.486-.596-.331-1.045-.919-1.641-1.219-1.059-.531-2.539-.902-3.936-1.338-1.291-.405-2.648-1.055-3.936-1.341-3.52-.779-6.935-2.182-10.168-2.557-2.594-.303-5.815.164-7.984-.245-1.604-.299-3.629-.313-5.357-.364-3.555-.105-6.818.286-10.168.732-1.521.201-3.135.896-4.811,1.215-1.76.34-3.699.575-5.357,1.096-1.219.385-2.469,1.134-3.718,1.583-2.713.98-4.772,1.14-6.233,3.169-1.92.364-3.509,1.862-5.245,2.92-.616.375-1.386.45-1.971.854-.378.259-.612.824-.983,1.096-.797.582-1.856.98-2.734,1.583-1.879,1.293-3.936,2.379-5.358,4.017-2.706,1.246-4.208,3.836-6.777,5.239-5.385,5.675-11.604,10.451-16.728,16.684-.684,2.162-2.686,2.856-3.281,5.117 .14.047.225.156.221.364 1.556.843 3.125-.378 4.81-1.338 5.024-2.866 10.893-5.052 16.18-6.699 .684.868.16,2.651-.218,3.53-.48,1.117-1.393,1.825-2.077,2.802-.654.929-1.062,2.016-1.75,2.801-.685.783-1.488,1.512-2.298,2.191-3.139,2.648-6.792,5.454-9.838,8.16-1.668,1.48-3.078,3.203-4.81,4.263 .218-.286.316-.849 0-1.097-2.802,2.891-5.535,5.855-8.531,8.527-1.065,1.774-2.312,3.351-3.278,5.236-1.164.797-1.705,2.744-2.625,4.507s-2.842,4.46-1.858,5.968c2.444.65 4.929-.15 7.217-.246 .327-.013.657.242.983.246 1.12.017 2.335-.371 3.5-.486 1.229-.127 2.492-.263 3.717-.246 1.882.031 3.421-.32 5.246-.486 2.608-.238 4.514-.004 6.781-.242 .735-.078 1.348-.204 2.077-.244 2.601-.144 4.738-.368 7.107-.609 5.167-.528 9.719-.494 15.087-.609 1.542-.031 3.006.119 4.047-.119 .824-.191 1.597-.613 2.404-.609 1.031.003 2.018.381 3.063.241 .609-.078 1.135-.47 1.746-.487 .62-.014 1.268.276 1.859.246 .596-.035 1.137-.341 1.75-.368 4.221-.171 8.136.337 11.918-.609 .922.316 2.995.252 3.826-.241 1.527.633 2.954-.119 4.482-.123 .494,0 1.012.234 1.532.245 3.687.055 7.737-.197 10.825-.245 3.834-.058 7.912-.231 11.918-.486 5.771-.368 12.617-.753 17.822-.365 5.395.398 11.852.018 17.053.242 4.217.184 8.771.681 12.9.609 1.066-.018 2.24-.497 3.283-.609 2.508-.266 4.49-.357 6.125-1.461 .152-.193-.037-.649.217-.973 3.514-.756 5.773-2.907 7.217-5.968 1.254-1.56 2.523-4.092 3.061-6.699 .541-2.628 1.148-5.688 1.311-8.405 .453-7.346-1.582-14.511-3.934-19.971-.113-.32-.434-.412-.545-.732-1.113-3.061-3.174-5.426-4.814-8.038-1.654-2.638-3.186-5.337-4.92-7.918-1.699-2.526-3.547-4.997-5.25-7.55-.857-1.286-1.902-2.334-2.732-3.652-2.455-3.901-5.104-7.853-6.67-12.544-2.25-4.023-3.02-9.304-4.592-13.641-.385-5.072.463-11.138 3.281-14.491 .023.312.431.676.655.85zm51.612,106.444c-2.246.057-4.078.309-6.016.486-.854.078-1.549.514-2.293.609-.768.099-1.57-.17-2.299-.123-1.541.105-3.037.885-4.701.368-1.303.993-3.83.397-6.016.851-.66.137-.584.252-1.092.245-1.824-.03-3.436.14-4.592-.489-1.516.384-3.006.793-4.375,1.34-.27.504.008,1.202 0,1.828 .604.385 1.113.872 1.75,1.216 9.797-1.045 22.039-.119 30.725-2.069 .709-1.158 1.754-1.941 2.734-2.802-.384-1.647-2.487-1.495-3.825-1.46zm-31.493,8.769c-3.287-.024-7.348-.497-11.043,0-1.391-.419-2.744.225-4.154.241-3.459.045-7.414.619-11.043.609-2.94-.006-5.893-.136-8.965,0-2.783.123-6.131.266-9.51.123-1.754-.075-3.701-.232-5.25,0-3.084.467-6.418-.051-9.621.244-.36.031-.615.32-.983.365-2.188.258-4.534-.123-6.78.122-4.393.477-8.832,1.113-13.121.974-3.598-.115-7.158-.14-10.824,0-.852-.521-2.221-.445-3.609-.364-8.303.477-15.277,1.001-23.943,1.706-3.755.303-7.524.766-11.262.973-4.99.276-9.878-.058-14.651,0-.804.011-1.832-.095-2.625,0-.453.055-.875.449-1.311.487-1.304.112-2.577.157-3.83.241-1.44.103-2.764.092-4.371.487-.357.062-.231-.603-.548-.241-3.329.564-7.972.715-11.479.731-.099.333-.034.854-.218,1.097-.459.061-1.569-.317-1.75.363-.276,1.25 2.121.984 2.842.852 .068.285.027.789.327,1.096 1.763-.313 2.87-.242 4.592-.364 1.106,1.26 2.802-.36 4.374-.364 .671-.004 1.638.453 2.516.609 2.104.375 4.197.582 6.012.852 .633.095 1.317.037 1.968.122 2.019.255 3.387.858 5.14.974 2.07.137 4.279.188 6.229-.245 3.118.241 6.257.926 9.406.978 3.356.051 6.086-.303 9.293-.368 3.473-.067 6.625.099 10.168.245 2.55.102 4.76.31 8.092.486 .957.052 1.896-.125 2.842-.122 3.03.011 5.992.388 8.857.487 .352-.092.13-.828.545-.852 2.881-.018 6.373.275 9.512-.123 1.701-.214 3.233-.466 4.156-.973 .371.033.626.193 1.092.122 .991-2.073-2.678-1.259-4.152-1.464-.514-.068-1.004-.408-1.641-.486-2.121-.252-4.681.534-6.232.367-1.284-.548-3.772-.813-5.137-.49-1.08-.483-3.415-.119-5.031-.242-1.947-.148-3.902-.555-5.795-.73-1.641-.154-3.233-.385-4.81-.487-4.177-.269-8.83-.099-12.684-1.338 4.885-.634 11.288-.052 15.744-1.097 5.163.398 10.739-.963 15.743-1.096 2.51-.068 5.104-.357 7.544-.486 3.159-.17 5.954.033 8.749,0 2.928-.041 5.771-.518 8.637-.609 1.16-.037 2.277.234 3.061-.123 7.547.326 15.904.697 23.836,0 3.096-.272 6.885.234 9.4-.486 4.068.5 8.459-.98 12.027,0-6.709.092-12.537,1.092-18.695,1.705-2.624.259-5.234.535-7.76.974-5.049.875-10.26,2.846-15.201,2.921-.973.017-1.977.156-2.842.123-.564-.021-1.093-.368-1.641-.365-.93.004-1.621.354-2.295.609-.408.153-1.113.178-1.201.729-.463,1.131 1.62,1.059 1.968.977 2.56,1.046 5.729.348 7.979.975 1.059-.1 2.455-.627 3.5-.246 2.914-.967 6.182-.278 9.402-.486 6.452-.412 13.002.354 19.35.486 2.195-.684 4.883-.084 7.217.487-1.412-.276-3.328.388-4.701.122 .695.65 2.418.307 3.17,0 .031.855.391-.133.875.123 3.039.494 6.338.361 9.293.974 1.816.378 3.604,1.29 5.25.368 .082-.661-.479-.604-.656-.978 .197-.688-.623-.674-.326-1.097 .779.082.271-.271.439-.486 .932.238.381,1.471 1.092,1.828 1.012-.93.027-2.969-.875-3.289 .15-.156.109-.53.109-.854-1.256-1.791-4.215-.682-6.893-.605-1.521.04-2.797-.439-4.043-.49-6.469-.256-14.199.926-20.01-.365 6.045-.99 12.422-1.804 19.025-2.92 1.828.271 3.908-.184 4.811-1.342 .545.541 1.188-.201 1.859-.245 .445-.026.959.235 1.424.245 1.764.045 3.58-.811 5.027-.609 .113-.445.287-.816.875-.732-.347-1.017-1.431-.469-1.857-1.34zm-176.139.122c-1.311-.092-2.91-.207-4.044-.122-6.907.511-15.273.939-22.087,1.337-1.083.858-.8,2.176-.327,3.047 2.287.297 4.353-.646 6.341-.731 2.744-.116 5.051.068 7.542-.241 .8-.103 1.556-.545 2.407-.609 1.004-.078 1.978.266 2.952.241 2.948-.067 5.712-1.446 8.527-.974-.078-.705.368-.071.766-.242 .31-.469 1.188-.303.984-1.34-.862-.628-1.972-.291-3.061-.366zm119.505,17.657c.154-.384.024-.933-.326-1.097-.889.068-1.739-.254-2.406-.363-1.365-.222-3.189.275-4.593.242-2.729-.059-5.933.359-8.637.608-4.53.419-10.182.479-15.636.368-2.294-.048-4.578.078-6.78,0-5.164-.184-10.093-1.147-14.978-.732-1.227-.518-2.684-.088-3.826-.123-.545-.013-1.113-.108-1.642-.121-3.258-.082-6.229.359-9.402.121-.725-.054-1.454-.5-2.189-.608-2.053-.296-4.129-.208-6.124-.241-4.5-.082-8.49-.018-12.789.973-1.345.311-2.499.023-3.391.123-.143.813.477,1.49.984,1.947 1.161-.146 1.845.197 2.842.244 .79.035 1.604-.115 2.407-.122 1.852-.014 2.716.442 4.262.851 3.527.939 7.289,2.604 10.06,4.385 2.655.037 4.708,1.569 7.216,1.828 2.227.231 3.187,1.052 5.358.974 3.614-.13 7.558-.823 11.151-.851 3.278-.027 6.314-1.008 9.515-1.584 3.347-.605 6.771-.993 10.06-1.463 .442-.062.84-.541 1.311-.119-5.1,1.91-9.783,3.462-14.869,5.48-4.385,1.736-10.686,1.535-14.76,3.529-6.315-.081-12.283.766-18.151.123-1.171-.129-2.305-.738-3.5-.973-.568-.113-1.185-.031-1.75-.123-1.818-.297-3.506-1.079-5.249-1.342-.47-.068-1.154.048-1.75,0-.494-.037-1.297-.439-1.528.246-.269.881.841.67 1.311.973 .381.246.585.79.875.975 1.477.938 3.754,1.316 5.576,1.949 .837.289 1.389.922 2.189,1.096 1.736.375 4.085.535 6.121.729 13.136,1.26 26.851,1.348 40.236-.364 1.512-.194 3.074-.653 4.593-.731 2.399-.119 4.841.111 6.89-.365 .354-.081.722-.4 1.093-.486 1.127-.262 2.522-.244 3.826-.363 5.183-.484 10.741-1.039 15.31-2.072 1.975.078 4.432-.331 6.342-.729 2.445.01 4.896.551 7.871,0 1.063.397 2.199.262 3.172,0 .559.449 1.645.363 1.969-.368-.42-.626-1.387-.585-2.189-.606-1.293-.037-2.9.48-3.387-.49 1.1.405 2.859-.354 4.262,0 .562.144.889.66 1.423.49 .527-.02.204-.5.544-.731 .249-.167 1.079.347 1.096-.487-1.348-1.514-3.438-.803-5.357-1.096-.388-.061-.643-.337-.983-.367-.3-.024-.667.225-1.093.244-1.855.096-3.963.089-5.906-.122 1.25-.875 2.655-1.311 4.048-2.069 1.324-.726 2.522-1.855 3.826-2.314 2.61-.92 6.024-1.257 9.183-1.584 1.95-.2 3.938-.531 5.686-.609 .771-.033 1.568.287 2.402.246 1.676-.082 3.422-.494 5.031-.365 2.287.178 4.432.559 6.668.606 2.264.052 4.477.225 6.67.49-.875.452-1.979.419-2.951.364-1.883-.105-3.783-.43-5.795-.486-2.031.176-3.904-.021-6.781,0 1.297.674 3.152.051 4.594.241 .332.044.652.306.982.368 2.309.408 5.045.184 7.547.609 1.438.241 2.713.693 4.045.729 .516.014 1.084-.273 1.643-.242 2.182.119 4.73.133 6.668-1.219 .408-.803.764-1.668 1.311-2.314-.033-.446.096-1.08-.109-1.338-.646-.229-1.445.19-2.186.241-.377-.105-.098-.946-.656-.851-3.932,2.094-10.184,1.855-14.871,1.215-8.344-1.133-17.418-2.733-26.236-1.583-2.941.385-4.5,1.124-6.561,2.073-.956.436-1.912.882-2.842,1.338-1.914.939-3.803,2.176-5.689,3.047-.916.422-1.916.459-2.733.973-.589.371-.997,1.025-1.638,1.338-1.409.691-2.614,1.043-4.482.975-.426.336.319.67.108.731-3.636-.062-7.169.347-10.717.487-5.716.228-11.39-.062-16.837,1.341 1.226-1.478 3.094-2.019 4.592-3.411 2.117-.348 3.918-1.927 6.125-2.801 1.381-.549 3.557-.6 5.137-1.097 .347-.108.64-.49.983-.609 .395-.136 1.505.075 2.189,0 1.3-.14 2.396-.896 3.608-1.097 1.686-.275 3.013-.296 5.027-.363 1.305-.045 2.506-.398 3.936-.609 1.457-.215 3.854.133 3.391-1.097 .049-.633-.728-.334-.99-.613zm47.779,9.134c-.357-.408-.771.023-1.205,0-.885-.041-1.711-.439-2.625-.606-2.357-.438-5.057-.187-7.652-.487-2.053-.241-4.102-.993-6.012-1.096-2.063-.115-4.066.541-6.014.605-1.461.052-3.441-.357-3.061,1.828 .345.256.352.178.875.123-.031.357.244.375.218.729 1.981.555 3.21,1.947 5.685,1.951 .521.391.998.837 1.641,1.096-.82,1.439-3.207,1.137-3.717,2.923 .149.821 1.645.739 1.42,1.583 2.188.807 4.027,1.031 6.123,1.583-.313.664-.684,1.266-1.092,1.823-2.162-.006-5.097,1.063-7.217.978-1.145-.048-1.896-.024-2.295,1.097-2.699,1.089-5.315,2.198-7.764,3.529-.517.283-.895.814-1.419,1.096-.892.48-2.131.434-2.733,1.461-.211.6.364.326.326.732-1.947.35-1.868,2.951-2.732,4.506 .054.508.381.712.438,1.221 .77.197 1.379,1.078 2.077.973 1.824,2.104 5.167,2.526 8.091,3.411 .844.96 1.872.753 3.059.974 .97.18 1.78.785 2.733,1.096 1.768.572 4.234,1.024 6.012.851 1.096-.105 2.219-.487 3.391-.609 .939-.099 1.957-.017 2.842-.241 1.764-.446 3.309-1.749 5.029-2.314 2.277-.748 4.479-1.13 6.342-2.314 .027-1.532-1.107-1.771-1.859-2.436-.881.727-1.938.522-2.951.73-.971.2-1.777.901-2.734,1.219-1.371.455-2.773.309-4.152.854 .031.283.232.524-.109.606-3.033.173-9.711,1.995-10.168-2.312 .398-.367.828-.701 1.529-.732 .469-.776.758-1.754 1.641-2.07 .146-1.906 2.029-2.021 3.5-1.828-.311-.541.363-.299.217-.973-2.553-2.012-6.516-1.73-9.949-2.68 1.375-.289 2.654-1.678 4.373-1.705 2.355-.041 5.717,1.068 7.436,1.341 .523-.2.652-.231 1.311-.122 .279.418.674.711 1.314.729 .115-1.457-.596-3.507-.219-5.113 .271-1.164 1.297-1.873 1.42-2.924 .582.395.555-.479.982-.609 .627-.115 1.043-.463 1.859-.363 .15-.242.381-.389.656-.487h.658c.207-.501 1.027-.313 1.311-.731 2.229-.646 3.854-.801 5.576-2.192 1.941-.439 3.988-1.808 4.924-3.774 .357-.007.414-.348.871-.242-.014-.875.541-1.33.33-2.072-1.076-.831-2.689.244-4.266,0-.289-.137.521-.858-.109-.975-.869.205-3.09-.034-4.156.359zm-52.044,9.622c-3.558.415-7.203,1.623-10.825,1.823-2.332.133-4.807-.119-7.214,0-3.856.195-6.38-.166-9.95,0-4.688.225-8.902.127-13.232.609-.422.096-.347.75-.544,1.097-.797-.065-.987-.259-1.202.368-.482,1.402 3.285,1.297 4.045,1.46 1.889.408 4.363,1.392 6.668,1.097 2.376-.307 4.705.225 6.781.486 1.283.163 2.454.229 3.717.363 .902.1 1.798.068 2.734.123 1.854.113 3.795.511 5.684.486 2.104-.023 4.246-.125 6.452-.119 3.782.008 7.585.185 10.935-.49 2.679-.537 5.338-1.17 7.762-2.068 3.336-1.232 6.428-2.992 9.842-3.531 .67-.288.241-.846.983-1.095 .854-.29 2.226.63 2.294-.487 .037-.585-.875-.779-1.637-.854-3.146-.303-5.604-.103-8.422,0-1.852.068-5.109-.238-5.246.244-2.885-.156-6.429.114-9.625.488zm60.464,10.351c-.023-.901.145-.875.109-1.828-.225-.033-.217-.322-.33-.486-1.742-.807-3.369.752-5.029,1.096-.43.089-.885-.064-1.311,0-2.016.314-3.492,2.485-5.467,2.193-.133.221.125.752-.223.973-.959-.211-1.742.705-2.402,1.219 .004.402.184.606.109,1.096 .875.263 1.738-.33 2.732-.486 .873-.136 1.719.222 2.404.123 1.076-.156 1.354-1.147 1.971-1.705h.545c.033-.242-.146-.242-.219-.368 1.842-1.443 3.586-2.06 6.018-2.069 .234.184.252.609.652.609-.032-.323.23-.316.441-.367z" fill="#fff" fill-rule="evenodd"/>
 <path d="m248.082,113.029c-2.818,3.353-3.666,9.419-3.281,14.491 1.572,4.337 2.342,9.618 4.592,13.641 1.566,4.691 4.215,8.643 6.67,12.544 .83,1.317 1.875,2.366 2.732,3.652 1.703,2.553 3.551,5.024 5.25,7.55 1.734,2.581 3.266,5.28 4.92,7.918 1.641,2.612 3.701,4.978 4.814,8.038 .111.32.432.412.545.732 2.352,5.46 4.387,12.625 3.934,19.971-.162,2.717-.77,5.777-1.311,8.405-.537,2.607-1.807,5.14-3.061,6.699-1.443,3.061-3.703,5.212-7.217,5.968-.254.323-.064.779-.217.973-1.635,1.104-3.617,1.195-6.125,1.461-1.043.112-2.217.592-3.283.609-4.129.071-8.684-.426-12.9-.609-5.201-.225-11.658.156-17.053-.242-5.205-.388-12.052-.003-17.822.365-4.006.255-8.084.429-11.918.486-3.088.048-7.139.3-10.825.245-.521-.011-1.038-.245-1.532-.245-1.528.004-2.955.756-4.482.123-.831.493-2.904.558-3.826.241-3.782.946-7.697.438-11.918.609-.613.027-1.154.333-1.75.368-.592.03-1.239-.26-1.859-.246-.611.018-1.137.409-1.746.487-1.045.14-2.031-.238-3.063-.241-.808-.004-1.58.418-2.404.609-1.041.238-2.505.088-4.047.119-5.369.115-9.92.081-15.087.609-2.369.241-4.507.466-7.107.609-.729.04-1.341.166-2.077.244-2.267.238-4.173.004-6.781.242-1.824.166-3.363.518-5.246.486-1.226-.017-2.488.119-3.717.246-1.164.115-2.379.503-3.5.486-.327-.004-.657-.259-.983-.246-2.288.096-4.773.896-7.217.246-.984-1.508.943-4.207 1.858-5.968s1.46-3.71 2.625-4.507c.967-1.886 2.213-3.462 3.278-5.236 2.996-2.672 5.729-5.637 8.531-8.527 .316.248.218.811 0,1.097 1.732-1.06 3.142-2.782 4.81-4.263 3.046-2.706 6.699-5.512 9.838-8.16 .81-.68 1.613-1.408 2.298-2.191 .688-.785 1.096-1.872 1.75-2.801 .684-.977 1.597-1.685 2.077-2.802 .377-.878.902-2.662.218-3.53-5.287,1.647-11.155,3.833-16.18,6.699-1.685.96-3.254,2.181-4.81,1.338 .003-.208-.082-.317-.221-.364 .596-2.261 2.597-2.955 3.281-5.117 5.124-6.233 11.343-11.009 16.728-16.684 2.57-1.403 4.071-3.993 6.777-5.239 1.423-1.637 3.479-2.723 5.358-4.017 .878-.603 1.937-1.001 2.734-1.583 .371-.272.605-.837.983-1.096 .585-.405 1.354-.48 1.971-.854 1.736-1.058 3.325-2.556 5.245-2.92 1.461-2.029 3.521-2.188 6.233-3.169 1.249-.449 2.499-1.198 3.718-1.583 1.658-.521 3.598-.756 5.357-1.096 1.676-.32 3.289-1.014 4.811-1.215 3.35-.446 6.613-.837 10.168-.732 1.729.051 3.754.065 5.357.364 2.169.409 5.391-.058 7.984.245 3.233.375 6.648,1.777 10.168,2.557 1.287.286 2.645.936 3.936,1.341 1.396.436 2.877.807 3.936,1.338 .596.299 1.045.888 1.641,1.219 .445.245 1.014.251 1.423.486 1.552.902 2.597,2.625 4.262,3.042 1.655,2.707 4.341,4.262 5.793,7.186 3.894,3.016 6.79,7.911 8.2,13.764 .609,2.533-.644,6.345.656,9.011 .844,1.495 1.971,2.679 3.391,3.534 3.523.582 6.049-1.981 7.543-4.385 .307-.494.412-1.164.654-1.583 .326-.558.801-.725.875-1.096 .193-.937-.32-2.346-.545-3.411-.256-1.198-.307-2.414-.549-3.411-.248-1.04-.941-2.51-1.418-3.531-.91-1.95-2.166-3.884-3.174-5.967-1.008-2.087-2.027-4.153-2.951-6.09-.408-.854-1.092-1.552-1.531-2.434-.436-.888-.66-1.967-1.094-2.923-.295-.657-.793-1.164-1.092-1.828-.535-1.174-.811-2.512-1.311-3.775-4.074-10.25-8.754-22.611-4.266-35.318 .627-1.767 1.488-3.517 2.295-5.116 1.59-3.139 4.285-5.352 6.451-8.037 1.824-1.382 4.166-2.465 6.672-3.408 .932-.354 1.789-.929 2.842-1.096 1.045-.167 2.121-.038 3.17-.245 .826-.163 1.623-.62 2.842-.609 1.678.014 3.559.307 4.924,1.219 1.654.313 3.52.449 5.027,1.338 .311.184.475.562.766.732 1.689.994 2.857,1.576 4.154,3.043 1.924,2.175 2.916,4.623 3.83,8.282 .52,2.101 1.248,5.035.762,7.795-.477,2.717-2.094,4.63-3.17,6.941 .15,1.985 1.471,2.812 2.408,4.14 .326.47.492,1.011.875,1.464 .891,1.069 2.307,2.728 2.951,4.018 .125.259.156.718.326,1.096 .357.796.797,1.767.549,3.169-1.039-.143-.627-1.903-1.424-2.314-.789.085.014,1.552-.545,2.069-.854.592-1.16-.364-1.75-1.096-.5-.62-1.238-.998-1.092-1.46-.814-.422-1.42-1.185-2.08-1.828-1.008-.984-2.063-1.771-2.842-3.044-.869-.252-1.113-1.198-2.186-1.219-.045-.524-.201-.354-.219-.732-1.572-.848-2.42-2.499-3.83-3.53-1.881-.218-2.74-1.021-4.371-1.341-.393-.603-1.883-1.124-3.064-2.07-.623-.5-1.145-1.287-2.076-1.583-.137-.164-.328-.238-.109-.487-.629.184-1.264-.603-1.967-.732-.15-.157-.109-.527-.109-.851-.564.112-.572.082-.658-.487-.666-.354-1.371-.664-1.641-1.463-1.086-.49-1.957-1.393-2.951-2.192-.309-.249-.664-.722-.875-.851-.254-.157-.422.058-.656-.123-.225-.173-.633-.537-.655-.85zm-47.561,34.831c2.002.205-.646-.211-.657.119 0,.088 3.013.674 2.733.245-.534-.173-1.562-.312-2.076-.364zm-13.559.729c.282-.01.524-.068.657-.242-.205-.231-.568-.017-.657.242zm-2.621.368c.698.003 1.872-.313 2.513-.487-.604-.092-1.627.065-2.513.487zm-7.655,0c.316.024.555-.031.656-.245-.248-.276-.48.081-.656.245zm-4.702,2.679c.834-.208 1.723-.357 2.297-.854-.915.118-1.773.299-2.297.854zm20.557,1.218c-.442.078-1.164-.16-1.422.119 .354-.027 1.021.365 1.422-.119zm-30.068,2.921c1.61-.456 3.02-.49 4.375-1.096-1.696.065-3.006.262-4.375,1.096zm51.389.609c-.831-.701-2.091-.922-3.063-1.46 .812.64 2.14,1.348 3.063,1.46zm-41.221-.241c.494-.021 1.059.041 1.094-.49-.553-.106-.989-.151-1.094.49zm-16.075,1.582c-.006.33.184.245 0,.487 .641-.266 2.465-.368 2.08-.974-.442.562-1.763.089-2.08.487zm7.547,2.192c1.127-.214 2.186-.378 2.843-.977-1.052.211-2.376.116-2.843.977zm2.951,1.096c.365-.082.535-.381.875-.49-.132-.936-1.531-.252-.875.49zm22.196-.49c1.253.167 2.434-.177 3.281-.364-1.137.074-2.587-.201-3.281.364zm-48.219,7.431c1.103-.398 2.424-1.198 2.737-2.07-.875.732-2.196.967-2.737,2.07zm95.999,4.507c-.03-.49-.742-.987-.222-1.341-.98.082-.456-1.518-1.42-1.46 .369,1.133.662,2.348 1.642,2.801zm.983,3.776c.313-.017.572.646.766.364-.258-.03-.064-.534 0-.609-.531-.385-.637-1.244-.875-1.948h-.33c-.047.899.671,1.686.439,2.193zm-4.918.119c-.316-.5-.786-.828-1.313-1.097 .36.515.776,1.485 1.313,1.097zm37.174,3.656c-.188-.051.02-.157 0-.368h-.33c-.115.311.231.695.33.368zm-38.161,1.583c.456.061.528-.31.548-.732-.354.071-.507-.082-.766-.123-.009.379.344.348.218.855zm-109.337,3.043c.354-.34.861-.503 1.423-.609-.269-.871-1.556.293-1.423.609zm113.384,1.219c.095-.725.562-1.821-.218-2.192 .129.47-.504,1.753.218,2.192zm-3.825-.123c-.082-.375.299-.235.218-.609-.323-.085-.477-.361-.983-.242-.001.569.431.654.765.851zm7.869,2.193c-.326-.456-.32-1.665-.984-2.07-.358,1.049.42,2.097.984,2.07zm-121.908.973c.255-.119.691-.038.654-.487-.235-.224-.742-.017-.654.487zm121.69,1.587c.034-.324-.228-.317-.438-.368-.11.408.152.398.438.368zm11.152.487c.275.306.508-.055.658-.245-.317-.024-.559.03-.658.245zm-1.858.364c.623.242.885-.412 1.748-.245-.234-.464-1.769-.375-1.748.245zm-8.527.731c.105.174.688.437.875.119-.264-.084-.774-.588-.875-.119zm34.222,5.113c.15-.564.078-1.849-.33-2.191 .12.727-.248,1.738.33,2.191zm2.077,2.437v-.609c-.164.021-.402-.045-.436.123 .166.136.27.349.436.486zm-3.061,7.429c.307.021.314-.296.328-.61-.342-.055-.351.261-.328.61z" fill-rule="evenodd"/>
 <path d="m144.87,250.893c.041-.398.535-.297.875-.364-.17.704.542-.058.763.364-.443.364-1.015-.164-1.638,0z" fill="#fff" fill-rule="evenodd"/>
 <path d="m219.548,254.303c-1.998,1.328-4.552,2.473-7.327,2.557 .631-.596 1.617-.381 2.404-.609 1.631-.474 3.105-1.546 4.923-1.948z" fill="#fff" fill-rule="evenodd"/>
 <path d="m246.986,266.237c-.105.936-.918,1.085-1.311,1.704 .079-.482.706-1.404 1.311-1.704z" fill="#fff" fill-rule="evenodd"/>
 <path d="m304.174,221.784c-.98.86-2.025,1.644-2.734,2.802-8.686,1.95-20.928,1.024-30.725,2.069-.637-.344-1.146-.831-1.75-1.216 .008-.626-.27-1.324 0-1.828 1.369-.547 2.859-.956 4.375-1.34 1.156.629 2.768.459 4.592.489 .508.007.432-.108 1.092-.245 2.186-.453 4.713.143 6.016-.851 1.664.517 3.16-.263 4.701-.368 .729-.047 1.531.222 2.299.123 .744-.096 1.439-.531 2.293-.609 1.938-.178 3.77-.43 6.016-.486 1.337-.035 3.44-.187 3.825,1.46zm-11.918,1.95c1.277-.245 3.83.105 5.027-.609-1.592-.174-3.615-.071-5.027.609z" fill-rule="evenodd"/>
 <path d="m95.776,229.58c.204,1.037-.674.871-.984,1.34-.398.171-.844-.463-.766.242-2.815-.473-5.579.906-8.527.974-.974.024-1.947-.319-2.952-.241-.851.064-1.606.507-2.407.609-2.492.31-4.799.125-7.542.241-1.988.085-4.054,1.028-6.341.731-.473-.871-.756-2.188.327-3.047 6.814-.397 15.181-.826 22.087-1.337 1.134-.085 2.733.03 4.044.122 1.09.076 2.2-.261 3.061.366z" fill-rule="evenodd"/>
 <path d="m270.715,230.43c-.588-.084-.762.287-.875.732-1.447-.201-3.264.654-5.027.609-.465-.01-.979-.271-1.424-.245-.672.044-1.314.786-1.859.245-.902,1.158-2.982,1.613-4.811,1.342-6.604,1.116-12.98,1.93-19.025,2.92 5.811,1.291 13.541.109 20.01.365 1.246.051 2.521.53 4.043.49 2.678-.076 5.637-1.186 6.893.605 0,.323.041.697-.109.854 .902.32 1.887,2.359.875,3.289-.711-.357-.16-1.59-1.092-1.828-.168.215.34.568-.439.486-.297.423.523.409.326,1.097 .178.374.738.316.656.978-1.646.922-3.434.01-5.25-.368-2.955-.612-6.254-.479-9.293-.974-.484-.256-.844.732-.875-.123-.752.307-2.475.65-3.17,0 1.373.266 3.289-.398 4.701-.122-2.334-.571-5.021-1.171-7.217-.487-6.348-.133-12.897-.898-19.35-.486-3.221.208-6.488-.48-9.402.486-1.045-.381-2.441.146-3.5.246-2.25-.627-5.42.071-7.979-.975-.348.082-2.431.154-1.968-.977 .088-.551.793-.575 1.201-.729 .674-.255 1.365-.605 2.295-.609 .548-.003 1.076.344 1.641.365 .865.033 1.869-.106 2.842-.123 4.941-.075 10.152-2.046 15.201-2.921 2.525-.438 5.136-.715 7.76-.974 6.158-.613 11.986-1.613 18.695-1.705-3.568-.98-7.959.5-12.027,0-2.516.721-6.305.214-9.4.486-7.932.697-16.289.326-23.836,0-.783.357-1.9.086-3.061.123-2.866.092-5.709.568-8.637.609-2.795.033-5.59-.17-8.749,0-2.44.129-5.034.418-7.544.486-5.004.133-10.58,1.494-15.743,1.096-4.456,1.045-10.859.463-15.744,1.097 3.854,1.239 8.507,1.069 12.684,1.338 1.576.103 3.169.333 4.81.487 1.893.176 3.848.582 5.795.73 1.616.123 3.951-.241 5.031.242 1.364-.323 3.853-.058 5.137.49 1.552.167 4.111-.619 6.232-.367 .637.078 1.127.418 1.641.486 1.475.205 5.144-.609 4.152,1.464-.466.071-.721-.089-1.092-.122-.923.507-2.455.759-4.156.973-3.139.398-6.631.105-9.512.123-.415.023-.193.76-.545.852-2.865-.1-5.827-.477-8.857-.487-.945-.003-1.885.174-2.842.122-3.332-.177-5.542-.385-8.092-.486-3.543-.146-6.695-.313-10.168-.245-3.207.065-5.937.419-9.293.368-3.149-.052-6.288-.736-9.406-.978-1.951.433-4.16.382-6.229.245-1.753-.115-3.122-.719-5.14-.974-.65-.085-1.334-.027-1.968-.122-1.814-.27-3.908-.477-6.012-.852-.878-.156-1.845-.613-2.516-.609-1.572.004-3.268,1.624-4.374.364-1.723.122-2.829.052-4.592.364-.299-.307-.259-.811-.327-1.096-.722.133-3.118.398-2.842-.852 .18-.681 1.29-.303 1.75-.363 .184-.242.119-.764.218-1.097 3.506-.017 8.149-.167 11.479-.731 .317-.361.191.303.548.241 1.606-.396 2.931-.385 4.371-.487 1.253-.084 2.526-.129 3.83-.241 .436-.038.858-.433 1.311-.487 .793-.095 1.821.011 2.625,0 4.772-.058 9.661.276 14.651,0 3.738-.207 7.506-.67 11.262-.973 8.666-.705 15.641-1.229 23.943-1.706 1.389-.081 2.758-.156 3.609.364 3.666-.14 7.227-.115 10.824,0 4.289.14 8.729-.497 13.121-.974 2.246-.245 4.592.136 6.78-.122 .368-.045.623-.334.983-.365 3.203-.295 6.537.223 9.621-.244 1.549-.232 3.496-.075 5.25,0 3.379.143 6.727,0 9.51-.123 3.072-.136 6.024-.006 8.965,0 3.629.01 7.584-.564 11.043-.609 1.41-.017 2.764-.66 4.154-.241 3.695-.497 7.756-.024 11.043,0 .423.874 1.507.326 1.857,1.34zm-9.512-.241c.34.449 1.33.384 1.748.121-.625-.417-.902.104-1.748-.121zm-5.795,1.706c.33-.078.939.156 1.094-.123-.199-.157-1.059-.276-1.094.123zm-85.719,1.337c2.213-.024-1.341-.385-1.205,0 .378-.011.787-.062.875.244 .045-.152.143-.247.33-.244zm-10.607.732c.457-.347 1.468-.071 1.859-.487-.527.062-1.824.013-1.859.487zm75.442,1.097c.33-.038.851.136.874-.246-.33.038-.85-.133-.874.246zm-4.042.609c.697-.219 1.684.027 1.967-.368-.402-.044-1.572.011-1.967.368zm-2.734,1.582c1.691.392 4.986.191 6.232-.363-2.31-.127-4.622.278-6.232.363zm-100.81.242c1.583-.021 2.723.541 4.044,0-.954-.058-3.156-.341-4.044,0zm26.568.245c-.734-.157-1.34-.453-2.185-.487 .259.606 1.767.463 2.185.487zm89.219.365c-.031.085-.152.215-.219.244-1.719.821-5.626-.663-6.998.242 4.721.018 9.398.852 13.777.123-2.308-.33-4.832.33-6.56-.609zm-73.692.853c-3.074-.363-6.025-1.102-9.294-.486 4.163.582 7.888,1.039 12.354,1.096-.834-.78-2.032-.487-3.06-.61zm-23.945-.486c-.439.078-1.165-.16-1.423.119 .443-.078 1.165.16 1.423-.119zm5.576.242c-.619.082-1.528-.16-1.968.122 .443-.106 1.791.552 1.968-.122zm-25.476.367c.449-.126.929.416 1.092-.123-.48.157-1.024-.312-1.092.123zm140.277-.123c-.295.076-.863-.156-.982.123 .394-.082.847.392.982-.123zm-127.593.975c.538,0 1.083.326 1.419-.123-.416-.055-1.147-.269-1.419.123z" fill-rule="evenodd"/>
 <path d="m213.205,247.481c.463,1.229-1.934.882-3.391,1.097-1.43.211-2.631.564-3.936.609-2.015.067-3.342.088-5.027.363-1.212.201-2.309.957-3.608,1.097-.685.075-1.795-.136-2.189,0-.344.119-.637.501-.983.609-1.58.497-3.756.548-5.137,1.097-2.207.874-4.008,2.453-6.125,2.801-1.498,1.393-3.366,1.934-4.592,3.411 5.447-1.402 11.121-1.113 16.837-1.341 3.548-.141 7.081-.549 10.717-.487 .211-.062-.534-.396-.108-.731 1.868.068 3.073-.283 4.482-.975 .641-.313 1.049-.967 1.638-1.338 .817-.514 1.817-.551 2.733-.973 1.887-.871 3.775-2.107 5.689-3.047 .93-.456 1.886-.902 2.842-1.338 2.061-.949 3.619-1.688 6.561-2.073 8.818-1.15 17.893.45 26.236,1.583 4.688.641 10.939.879 14.871-1.215 .559-.096.279.745.656.851 .74-.051 1.539-.47 2.186-.241 .205.258.076.892.109,1.338-.547.646-.902,1.512-1.311,2.314-1.938,1.352-4.486,1.338-6.668,1.219-.559-.031-1.127.256-1.643.242-1.332-.035-2.607-.487-4.045-.729-2.502-.426-5.238-.201-7.547-.609-.33-.063-.65-.324-.982-.368-1.441-.19-3.297.433-4.594-.241 2.877-.021 4.75.176 6.781,0 2.012.057 3.912.381 5.795.486 .973.055 2.076.088 2.951-.364-2.193-.266-4.406-.438-6.67-.49-2.236-.048-4.381-.429-6.668-.606-1.609-.129-3.355.283-5.031.365-.834.041-1.631-.279-2.402-.246-1.747.078-3.735.409-5.686.609-3.158.327-6.572.664-9.183,1.584-1.304.459-2.502,1.589-3.826,2.314-1.393.759-2.798,1.194-4.048,2.069 1.943.211 4.051.218 5.906.122 .426-.02.793-.269 1.093-.244 .341.03.596.307.983.367 1.92.293 4.01-.418 5.357,1.096-.017.834-.847.32-1.096.487-.34.231-.017.712-.544.731-.534.17-.861-.347-1.423-.49-1.402-.354-3.162.405-4.262,0 .486.971 2.094.453 3.387.49 .803.021 1.77-.02 2.189.606-.324.731-1.41.817-1.969.368-.973.262-2.109.397-3.172,0-2.976.551-5.426.01-7.871,0-1.91.397-4.367.807-6.342.729-4.568,1.033-10.127,1.588-15.31,2.072-1.304.119-2.699.102-3.826.363-.371.086-.739.405-1.093.486-2.049.477-4.49.246-6.89.365-1.519.078-3.081.537-4.593.731-13.385,1.712-27.1,1.624-40.236.364-2.036-.193-4.385-.354-6.121-.729-.8-.174-1.352-.807-2.189-1.096-1.821-.633-4.099-1.012-5.576-1.949-.29-.185-.494-.729-.875-.975-.47-.303-1.58-.092-1.311-.973 .231-.686 1.035-.283 1.528-.246 .596.048 1.28-.068 1.75,0 1.743.263 3.431,1.045 5.249,1.342 .565.092 1.181.01 1.75.123 1.195.234 2.329.844 3.5.973 5.869.643 11.836-.204 18.151-.123 4.074-1.994 10.375-1.793 14.76-3.529 5.086-2.019 9.77-3.57 14.869-5.48-.471-.422-.868.058-1.311.119-3.289.47-6.713.857-10.06,1.463-3.2.576-6.236,1.557-9.515,1.584-3.594.027-7.537.721-11.151.851-2.172.078-3.132-.742-5.358-.974-2.509-.259-4.562-1.791-7.216-1.828-2.771-1.78-6.533-3.445-10.06-4.385-1.545-.408-2.41-.864-4.262-.851-.803.007-1.617.157-2.407.122-.998-.047-1.682-.391-2.842-.244-.507-.457-1.127-1.134-.984-1.947 .892-.1 2.046.188 3.391-.123 4.299-.99 8.289-1.055 12.789-.973 1.995.033 4.071-.055 6.124.241 .735.108 1.464.555 2.189.608 3.172.238 6.144-.203 9.402-.121 .528.013 1.097.108 1.642.121 1.143.035 2.6-.395 3.826.123 4.885-.415 9.813.549 14.978.732 2.202.078 4.486-.048 6.78,0 5.454.111 11.105.051 15.636-.368 2.704-.249 5.907-.667 8.637-.608 1.403.033 3.228-.464 4.593-.242 .667.109 1.518.432 2.406.363 .351.164.48.713.326,1.097 .268.283 1.045-.016.99.613zm-74.023-1.218c-2.288-.095-4.483-.354-6.996-.241 2.077.486 5.165.564 6.996.241zm-9.402.122c.507-.119.661.16.984.246 .068-.371.589-.238.657-.609-.44.265-1.287-.202-1.641.363zm-3.06.123c.262-.074.793.153.875-.123-.341-.19-.678-.354-.875.123zm15.634.364c-.534-.745-2.195-.231-3.063-.609 .63.639 2.158.279 3.063.609zm2.625.245c1.876.47.725-.364 0,0zm18.039,0c-.367.075-1.015-.156-1.201.123 .367-.078 1.013.156 1.201-.123zm2.733.242c-.422-.014-2.28.027-1.093.122 1.195.095 3.707.36 5.031.122-1.105-.435-2.9-.21-3.938-.244zm39.802.122c.259-.075.793.153.875-.122-.242-.072-.818-.306-.875.122zm-55.982.61c2.581.099 4.579.177 7.435,0 .115-.007.085-.157-.109-.122-2.58-.293-4.636-.086-7.217-.365-.084.027-.125.103-.108.242-.001.082-.001.164-.001.245zm89.545.487c.872-.235-.507-.225-.983.122 .578.044.683-.041.983-.122zm-5.466.61c1.629-.062 2.641-.119 4.043-.487-1.49.002-2.964.024-4.043.487zm-44.608,0c1.61-.038 3.431.092 4.919-.365-1.975.017-3.387-.038-4.919.365zm44.499.122c.018-.344-.269-.351-.548-.368-.136.48.259.365.548.368zm-95.234.487c-.402-.133-.589-.739-.984-.246 1.015.521 2.475,1.016 3.608.487-.891-.065-1.844-.423-2.624-.241zm127.816.609c.916.319 2.199.163 2.951-.368-.926.052-2.219-.197-2.951.368zm-122.567.122c-.497-.344-1.77-.463-2.407-.245 .814-.01 1.744.494 2.407.245zm2.952.365c-.221-.422-.933.34-.763-.364-.34.067-.834-.034-.875.364 .623-.164 1.195.364 1.638,0zm6.562.609c-.412.092-.523-.15-.875-.123 .018.354.916.433.875.123zm63.854,1.947c.609-.272 2.253-.633 1.967-1.096-.684.334-1.453.575-1.967,1.096zm-50.734,0c.296-.082 1.235-.075 1.093-.242-.49-.041-.865-.215-1.093.242zm48.435,2.801c-.787.229-1.773.014-2.404.609 2.775-.084 5.329-1.229 7.327-2.557-1.818.403-3.292,1.475-4.923,1.948zm-40.891,2.925c.715-.099 1.119-.542 1.967-.487 .27-.493 1.811-.797 1.423-1.219-.964.756-2.444.933-3.39,1.706zm50.297-.732c.296-.205.51.193.653-.246-.224.075-.758-.193-.653.246zm-38.271.245c-.775.075-1.402.184-2.402,0 .268.657 2.08.432 2.402,0zm18.697,1.703h.656c-1.041-.297-3.074.013-4.044.367 1.26-.174 2.38-.151 3.388-.367zm-4.48.489c.395-.007.861.068.984-.245-.419-.02-.797.007-.984.245zm-17.934.974c.279-.014.521-.068.657-.246-.208-.231-.568-.014-.657.246zm-46.469.972c.333-.047.558.32.657-.122-.01-.149-.913.01-.657.122zm.875.123c.646-.027 1.419.282 2.188.363 .889.093 2.066.361 2.294-.241-1.497-.116-3.077-.489-4.482-.122zm19.791.729c-.804.041-1.736-.324-2.186.244 1.98-.289 4.445.324 6.229-.363 .112-.004.14-.215 0-.246-.867.181-2.623.296-4.043.365z" fill-rule="evenodd"/>
 <path d="m264.154,255.641c.631.116-.18.838.109.975 1.576.244 3.189-.831 4.266,0 .211.742-.344,1.197-.33,2.072-.457-.105-.514.235-.871.242-.936,1.967-2.982,3.335-4.924,3.774-1.723,1.392-3.348,1.546-5.576,2.192-.283.418-1.104.23-1.311.731h-.658c-.275.099-.506.245-.656.487-.816-.1-1.232.248-1.859.363-.428.13-.4,1.004-.982.609-.123,1.051-1.148,1.76-1.42,2.924-.377,1.606.334,3.656.219,5.113-.641-.018-1.035-.311-1.314-.729-.658-.109-.787-.078-1.311.122-1.719-.272-5.08-1.382-7.436-1.341-1.719.027-2.998,1.416-4.373,1.705 3.434.949 7.396.668 9.949,2.68 .146.674-.527.432-.217.973-1.471-.193-3.354-.078-3.5,1.828-.883.316-1.172,1.294-1.641,2.07-.701.031-1.131.365-1.529.732 .457,4.307 7.135,2.484 10.168,2.312 .342-.082.141-.323.109-.606 1.379-.545 2.781-.398 4.152-.854 .957-.317 1.764-1.019 2.734-1.219 1.014-.208 2.07-.004 2.951-.73 .752.665 1.887.903 1.859,2.436-1.863,1.185-4.064,1.566-6.342,2.314-1.721.565-3.266,1.868-5.029,2.314-.885.225-1.902.143-2.842.241-1.172.122-2.295.504-3.391.609-1.777.174-4.244-.278-6.012-.851-.953-.311-1.764-.916-2.733-1.096-1.187-.221-2.215-.014-3.059-.974-2.924-.885-6.267-1.308-8.091-3.411-.698.105-1.308-.775-2.077-.973-.058-.509-.385-.713-.438-1.221 .864-1.555.785-4.156 2.732-4.506 .038-.406-.537-.133-.326-.732 .603-1.027 1.842-.98 2.733-1.461 .524-.281.902-.813 1.419-1.096 2.448-1.331 5.064-2.44 7.764-3.529 .398-1.121 1.15-1.145 2.295-1.097 2.12.085 5.055-.983 7.217-.978 .408-.558.779-1.159 1.092-1.823-2.096-.552-3.936-.776-6.123-1.583 .225-.844-1.271-.762-1.42-1.583 .51-1.786 2.896-1.483 3.717-2.923-.643-.259-1.119-.705-1.641-1.096-2.475-.004-3.703-1.396-5.685-1.951 .026-.354-.249-.371-.218-.729-.523.055-.53.133-.875-.123-.381-2.186 1.6-1.776 3.061-1.828 1.947-.064 3.951-.721 6.014-.605 1.91.103 3.959.854 6.012,1.096 2.596.301 5.295.049 7.652.487 .914.167 1.74.565 2.625.606 .434.023.848-.408 1.205,0 1.068-.387 3.289-.148 4.156-.359zm-21.103-.364c-.795-.201-1.848-.33-3.06-.365 .419.712 2.437.287 3.06.365zm6.234,1.705c.939-.051 2.104.15 2.732-.245-.953.232-2.099-.432-2.732.245zm15.963,1.948c-.01.334.184.245 0,.486 .436.037.521-.313.656-.609-.267-.014-.527-.017-.656.123zm-19.898,1.095c.268.289.643,0 .984,0 .066-.656-1.053-.656-.984,0zm11.259,0c-.445.119-.441-.014-.982,0-.014.485.945.239.982,0zm-5.793,5.725c1.623-.674 3.533-.445 4.592-1.582-1.521.537-3.424.65-4.592,1.582zm-5.14,2.191c.393-.619 1.205-.769 1.311-1.704-.606.3-1.233,1.222-1.311,1.704zm3.281-.853c.398.004.232.633.764.486 .266-.231.436-.57.656-.85-.613-.031-1.147.02-1.42.364zm-17.057,7.431c.646-.214 1.361-.354 1.75-.854-.881-.048-1.3.418-1.75.854zm-2.732,2.188c.408.031 1.631.181 1.75-.486-.634.105-1.161.334-1.75.486zm4.373,1.706c.636.562 2.576.752 3.499,0-1.562-.02-2.022-.071-3.499,0zm-10.385,1.706c.337.013.605-.055.766-.242-.408-.078-.626-.194-.766.242zm4.483.121c-.029-.578-.826-.295-1.313-.363 .125.47.799.326 1.313.363zm-5.358.852c-.078,1.131 1.74.742 1.968.123-.493-.297-1.423-.59-1.968-.123zm8.31,1.951c1.198.092 1.912.62 2.841.609-.702-.349-2.088-1.123-2.841-.609zm-.875,1.461c-.515-.201-1.308-.735-1.858-.486 .613.091 1.251.793 1.858.486zm15.524,2.679c1.498.269 3.445.041 4.371-.729-1.644.241-2.74.412-4.371.729zm-4.812.854c-1.264-.096-2.125-.637-3.279-.854 .531.772 2.542,1.112 3.279.854zm2.297.24c-.564.018-1.369-.339-1.859,0 .447.041 1.335.453 1.859,0z" fill-rule="evenodd"/>
 <path d="m217.58,265.141c.137-.482 3.395-.176 5.246-.244 2.818-.103 5.276-.303 8.422,0 .762.074 1.674.269 1.637.854-.068,1.117-1.439.197-2.294.487-.742.249-.313.807-.983,1.095-3.414.539-6.506,2.299-9.842,3.531-2.424.898-5.083,1.531-7.762,2.068-3.35.675-7.152.498-10.935.49-2.206-.006-4.348.096-6.452.119-1.889.024-3.829-.373-5.684-.486-.937-.055-1.832-.023-2.734-.123-1.263-.135-2.434-.2-3.717-.363-2.076-.262-4.405-.793-6.781-.486-2.305.295-4.779-.688-6.668-1.097-.76-.163-4.527-.058-4.045-1.46 .215-.627.405-.434 1.202-.368 .197-.347.122-1.001.544-1.097 4.33-.482 8.545-.385 13.232-.609 3.57-.166 6.094.195 9.95,0 2.407-.119 4.882.133 7.214,0 3.622-.2 7.268-1.408 10.825-1.823 3.197-.375 6.741-.645 9.625-.488zm-7.108,1.706c3.615.435 7.741-.241 11.919-.609 .789-.071 1.645.263 2.186-.245-5.022.109-9.101.006-14.105.854zm-26.243,1.823c-.405.089-.467-.207-.871-.122-.114.419.82.293.871.122zm-11.043.368c-.562-.266-1.553-.055-2.295-.122 .572.574 1.478.269 2.295.122zm1.64-.122c-.688.115-1.024-.127-1.528.122 .401.03 1.542.511 1.528-.122zm22.195,1.582c.052-.381-.232-.388-.545-.363-.139.476.259.36.545.363zm-7.979.242c-1.059.123-1.587-.344-2.624-.242 .295.641 2.069.671 2.624.242z" fill-rule="evenodd"/>
 <path d="m267.98,276.344c-.4,0-.418-.426-.652-.609-2.432.01-4.176.626-6.018,2.069 .072.126.252.126.219.368h-.545c-.617.558-.895,1.549-1.971,1.705-.686.099-1.531-.259-2.404-.123-.994.156-1.857.749-2.732.486 .074-.489-.105-.693-.109-1.096 .66-.514 1.443-1.43 2.402-1.219 .348-.221.09-.752.223-.973 1.975.292 3.451-1.879 5.467-2.193 .426-.064.881.089 1.311,0 1.66-.344 3.287-1.902 5.029-1.096 .113.164.105.453.33.486 .035.953-.133.927-.109,1.828-.212.053-.474.046-.441.367z" fill-rule="evenodd"/>
</svg>
