<?xml version='1.0' encoding='utf-8'?>
<svg xmlns="http://www.w3.org/2000/svg" enable-background="new 0 0 2270 1720.1041" version="1.1" viewBox="0 0 2270 1720.1041">
<path d="m304.83 1618c-34.844-45.526-24.218-162.95 13.319-294.77 1.2148-4.2662 2.8029-8.4308 4.67-12.455 29.756-64.126 52.329-129.18 67.473-195.21 51.525-161.53 94.327-320.81 127.5-477.62 6.308-24.214 10.93-46.053 13.03-64.334 1.5645-13.622 5.0762-26.863 9.1556-39.954 0.7114-2.2827 1.0774-4.7339 1.0754-7.365 2.9453-15.897 3.6573-31.596 2.1908-47.103-0.9938-10.507-0.4436-21.093 0.9762-31.551 2.46-18.12 1.7054-36.933-3.167-40.752-3.8127-5.7191-8.5802-13.695-12.88-21.118-7.2252-12.474-11.328-26.546-11.73-40.955-0.1105-3.9579-0.3208-7.735-0.7592-11.204-0.7616-6.0274-5.9535-10.481-12.024-10.229-14.426 0.5998-29.718-1.3261-45.572-4.886-45.969-10.59-130 0-141.37 3.1014-66.944 27.714-138.7 51.814-214.26 73.06-3.0797 0.866-5.8099 2.6716-7.8351 5.1481-2.5822 3.1576-6.266 7.2096-8.4471 7.5991-3.6184 0.6461-5.686-5.686-5.686-5.686-1.6334-9.8945-1.6764-19.388-0.0309-28.455 0.7585-4.1798 2.8682-7.9965 6.0087-10.857l29.392-26.775c3.9683-3.6149 8.3697-6.7393 13.144-9.193 46.473-23.884 81.732-52.666 102.4-87.825 1.7236-2.9325 0.9662-6.7585-1.8496-8.6667-22.526-15.265-23.97-36.155-10.7-60.97 0.9986-1.8674 2.3123-3.5486 3.8485-5.0061 83.554-79.279 244.04-129.42 340.58-90.491 103.52 43.426 161.53 108.71 171.76 214.28 0.1364 1.4075 0.4255 2.7938 0.8593 4.1397 50.324 156.12-38.817 527.54-82.995 879.96-0.2051 1.6364 1.875 2.4932 2.9058 1.2058 193.91-242.16 395.42-404.45 607.8-452.56 1.0865-0.2462 2.1687-0.5388 3.2316-0.8726 45.745-14.367 86.423-20.871 115.01-8.6146 2.942 1.2612 6.2184 1.3896 9.2697 0.4223 16.314-5.1722 32.845-8.0765 49.604-8.6195 4.9473-0.1603 9.7422-1.8657 13.693-4.8477 10.205-7.703 17.782-19.073 39.034-17.637 19.126 1.2923 83.481 52.983 109.84 74.78 10.868 1.3658 25.231 0.9236 36.623 4.0772 9.9805 2.7628 20.546 1.618 29.936-2.7487 37.403-17.394 89.859-18.186 160.19 0.7391 26.688-1.7002 52.1 0.2357 76.02 6.4196 4.3241 1.1179 7.1786 5.2768 6.6101 9.7066-0.9686 7.5479-4.4778 14.504-9.5732 21.091 43.976 13.024 79.645 32.169 95.628 65.82 24.344 7.963 39.483 22.674 37.218 50.14 21.144 6.2525 32.176 21.132 21.193 54.792 7.6846 7.8566 10.132 17.435 8.2705 28.43 40.765-18.515 80.432-34.154 118.82-46.447 3.3335-1.0674 6.7344 1.5741 6.4888 5.0657-3.259 46.322-32.06 94.864-70.518 144.25-22.564 33.515-46.58 61.821-72.118 84.665-0.8545 0.7643-1.6309 1.5959-2.3268 2.507-43.432 56.855-85.737 119.34-127.15 186.27-34.36 40.084-79.25 64.432-132.52 76.261-3.8629 0.8579-7.3875 2.8842-10.06 5.8019-52.067 56.838-135.72 96.023-236.32 125.73-247.55 53.913-593.45 70.958-959.9 80.293-96.117 9.6563-257.38-16.954-275-39.974z"/>
</svg>